<?xml version="1.0" encoding="utf-8"?>
<!-- Generator: Adobe Illustrator 26.0.3, SVG Export Plug-In . SVG Version: 6.00 Build 0)  -->
<svg version="1.1" id="Lager_1" xmlns="http://www.w3.org/2000/svg" xmlns:xlink="http://www.w3.org/1999/xlink" x="0px" y="0px"
	 viewBox="0 0 438.3 317.4" style="enable-background:new 0 0 438.3 317.4;" xml:space="preserve">
<style type="text/css">
	.st0{fill:#BE2800;}
	.st1{fill:#FFFFFF;}
	.st2{fill-rule:evenodd;clip-rule:evenodd;fill:#3282BE;}
</style>
<g>
	<path class="st0" d="M306.9,0c0,0,0,125.3,0,130.3c0,1.6,0.3,17.8-6.9,34.7c-8.2,19.1-23.1,30-32.1,35.8
		c-12.8,8.2-48.8,16.6-48.8,16.6s-35.9-8.3-48.7-16.6c-9-5.8-23.9-16.7-32.1-35.8s-6.9-32.1-6.9-34.7s0-130.3,0-130.3h30.2v25.7
		h27.3V0h29v25.7h27.2V0H306.9L306.9,0z"/>
	<path class="st1" d="M154.7,87.1c0-35,18-50.1,48.6-50.1s48.6,15.1,48.6,50.1V124c0,35-18,50.1-48.6,50.1S154.7,159,154.7,124V87.1
		L154.7,87.1z"/>
	<path class="st2" d="M203.1,60.8c10.9,0,19.7,8.8,19.7,19.6v49.5c0,10.9-8.8,19.6-19.6,19.6c-10.9,0-19.7-8.8-19.7-19.6V80.4
		C183.4,69.6,192.2,60.8,203.1,60.8L203.1,60.8z"/>
</g>
<g>
	<path d="M40.9,111.1c1.4-0.2,2.7,0.6,2.9,2.1c0.2,1.4-0.9,2.7-2.2,2.8c-1.4,0.2-2.6-0.8-2.8-2.1C38.7,112.6,39.6,111.3,40.9,111.1z
		 M42.4,121.4c1.4-0.2,2.7,0.6,2.9,2.1c0.2,1.4-0.9,2.7-2.2,2.8c-1.4,0.2-2.6-0.8-2.8-2.1C40.2,122.8,41.1,121.6,42.4,121.4z
		 M16.4,106.9c9.3-1.3,19.2,3.4,20.5,12.5c1.3,9.1-6.8,16.4-16.2,17.8c-9.3,1.3-19.3-3.4-20.6-12.5C-1.2,115.7,7.1,108.3,16.4,106.9
		z M19.9,131.2c10.9-1.6,16.9-4.3,15.9-11.6c-1-7.3-7.6-8.2-18.5-6.6s-16.9,4.3-15.9,11.6C2.4,131.8,9,132.8,19.9,131.2z"/>
	<path d="M5.5,152.9l1.2-0.4l1.3,3.9l31.5-10.5l-1.3-3.9l1.2-0.4l5,14.9c3.2,9.7-1.4,12.9-3.7,13.6c-6.6,2.2-9.8-3.2-11.8-7.8h-0.1
		c0.5,6.3-0.3,11-8.5,13.2c-2.5,0.7-4.7,1.7-4.8,3c-0.3,1.2,1.4,2.6,2.6,3.5l-0.8,0.9c-1.9-0.7-3.3-2.4-3.8-3.7
		c-1.2-3.6,0-6.2,2.2-7.7c0.8-0.6,4.8-2.2,7.7-3.6c2.2-1,5.9-2.7,3.8-9.1l-1-3l-16.5,5.5l1.3,4l-1.2,0.4L5.5,152.9z M27.3,155.5
		l0.9,2.7c1.9,5.6,3.5,8.9,10.4,6.6c4.9-1.6,5.7-4.3,4.1-9.1l-1.6-4.8L27.3,155.5z"/>
	<path d="M20.9,194.4l1.1-0.6l2.4,4.1l28.7-16.7l-2.4-4.1l1.1-0.6l13.6,23.4l-7.5,4.4l-0.6-1c5-4,4.3-7.4,1.9-11.6l-3.5-6l-13.3,7.7
		c2.7,4.7,3.6,6.1,8.9,3.9l0.6,1l-11.7,6.8l-0.6-1c4.8-3.1,4.2-5.4,1.6-10L27,202.4l3.2,5.6c3.5,6.1,5.5,7.7,13,4.9l0.7,1.2l-9,4.4
		L20.9,194.4z"/>
	<path d="M43.5,230.6l0.9-0.8l2.7,3.1L72,211l-2.7-3.1l0.9-0.8l9.1,10.4c6.9,7.9,4.4,12.9,1.9,15.1c-4,3.5-8.9,1.5-12.2-1.4
		l-0.1,0.1c4.1,5.9,2.5,11.4,0.1,13.6c-3,2.7-8.9,4.8-16.5-3.9L43.5,230.6z M50.6,236.7l3,3.4c4.1,4.6,6.6,4.4,11.7,0
		c5.1-4.5,3.9-7.8-0.3-12.6l-1.7-1.9L50.6,236.7z M64.1,224.8l3,3.4c3.5,4,6.1,3.7,10.3-0.1c3.7-3.3,4.3-6.2,0.7-10.2l-2.7-3.1
		L64.1,224.8z"/>
	<path d="M72.3,261.5l0.7-1l3.3,2.5l20.2-26.3l-3.3-2.5l0.7-1l12.5,9.6c8.1,6.2,6.1,11.4,4.6,13.3c-4.3,5.5-9.9,2.9-14.2,0.1
		l-0.1,0.1c3.9,5,5.8,9.3,0.3,15.7c-1.7,1.9-2.9,4-2.3,5.2c0.4,1.2,2.6,1.4,4.1,1.5l-0.2,1.2c-2,0.5-4.1-0.2-5.2-1
		c-3-2.3-3.5-5.2-2.5-7.6c0.4-0.9,2.8-4.5,4.4-7.3c1.3-2.1,3.3-5.6-2-9.7l-2.5-2l-10.4,13.8l3.3,2.6l-0.7,1L72.3,261.5z M91.8,251.4
		l2.3,1.8c4.6,3.6,7.9,5.4,12.3-0.3c3.2-4.1,2.4-6.7-1.7-9.8l-4-3.1L91.8,251.4z"/>
	<path d="M116.9,272.2c3.9-8.6,13.3-14.3,21.6-10.5s10.1,14.6,6.2,23.2c-3.9,8.6-13.3,14.4-21.7,10.6
		C114.7,291.8,113,280.8,116.9,272.2z M139.2,282.5c4.6-10,5.5-16.6-1.2-19.6c-6.7-3.1-11,1.9-15.6,12c-4.6,10-5.5,16.6,1.2,19.6
		C130.3,297.5,134.6,292.4,139.2,282.5z"/>
	<path d="M186.5,278.3l-0.2,1.2l-4.1-0.7l-4.4,26.1c-0.2,1.2-0.2,7,6.2,8.1c7.9,1.3,9.8-3.9,10.9-10.6l3.5-20.9l-4-0.7l0.2-1.2
		l9.5,1.6l-0.2,1.2l-4-0.7l-3.8,22.5c-1.4,8.3-5.7,11.6-13.6,10.3c-6.8-1.1-10.5-5.6-9.5-11.5l4.2-25.1l-4-0.7l0.2-1.2L186.5,278.3z
		"/>
	<path d="M215.4,282.7l-4.2,0.2l-0.1-1.2l10.4-0.4l16.2,25.1h0.1l-1-24.5l-4.2,0.2l-0.1-1.2l9.9-0.4l0.1,1.2l-4.1,0.2l1.5,35.1
		l-1.4,0.1l-21.4-33.2H217l1.4,32.1l4.1-0.2l0.1,1.2l-9.9,0.4l-0.1-1.2l4.2-0.2L215.4,282.7z"/>
	<path d="M270.7,310.7l-14,2.9l-0.2-1.2l4.5-0.9l-6.7-32.5l-4.5,0.9l-0.2-1.2l14-2.9l0.2,1.2l-4.5,0.9l6.7,32.5l4.5-0.9L270.7,310.7
		z"/>
	<path d="M269.5,274.8l12.6-4.8l0.4,1.1l-3.9,1.5l17.9,21.6h0.1l-1.5-27.9l-4.5,1.7l-0.4-1.1l9.5-3.6l0.4,1.1l-3.5,1.4l2,36.9
		l-1.2,0.5l-23.7-28.6l-3.6,1.4L269.5,274.8z"/>
	<path d="M323.3,291.1l-0.6-1l4-2.5l-17.6-28.1l-4,2.5l-0.7-1l22.9-14.3l4.6,7.4l-1,0.6c-4.1-4.9-7.5-4.1-11.6-1.5l-5.9,3.7l8.1,13
		c4.6-2.9,6-3.8,3.6-9l1-0.6l7.2,11.4l-1,0.6c-3.3-4.7-5.6-4.1-10.1-1.3l8.7,14l5.5-3.4c6-3.7,7.5-5.7,4.5-13.1l1.2-0.7l4.7,8.8
		L323.3,291.1z"/>
	<path d="M359.1,267.3l-0.8-0.9l3-2.8l-22.7-24.1l-3,2.8l-0.8-0.9l11.4-10.8c7.4-7,12.3-4.2,13.9-2.4c4.8,5.1,1.2,10.3-2.1,14
		l0.1,0.1c5.5-3.1,10.1-4.3,15.5,2.1c1.6,2,3.5,3.5,4.7,3.1c1.2-0.2,1.8-2.3,2.1-3.8l1.1,0.3c0.2,2.1-0.8,4-1.8,5
		c-2.7,2.6-5.7,2.6-7.9,1.3c-0.9-0.5-4-3.4-6.5-5.5c-1.9-1.6-5-4.2-9.9,0.4l-2.3,2.2L365,260l3.1-2.9l0.8,0.9L359.1,267.3z
		 M352.2,246.5l2.1-2c4.3-4,6.6-6.9,1.6-12.2c-3.5-3.8-6.3-3.4-10,0.1l-3.7,3.5L352.2,246.5z"/>
	<path d="M390.3,235.9l-0.4,0.6l-7.4-5.4l0.6-0.8c5.1,1.2,9.9,1,13-3.2c2.7-3.7,3.1-8.9-0.7-11.6c-2.5-1.9-4.1-2.1-7.9,0.2
		c-1.8,1.1-8.9,6.2-9.8,6.5c-3.4,1.3-6.7,0.4-9.1-1.4c-1.8-1.3-3.1-3.1-3.8-5.5c-0.7-2.5-0.6-5.7,1.9-8.9c1.8-2.5,4.8-3.8,6-4.2
		v-2.5l0.4-0.6l6.7,4.9l-0.6,0.9c-4.5-1.2-8.9-1.2-11.7,2.6c-2.2,2.9-2.3,7.7,0.9,10.1c7.1,5.3,14.5-14.4,26.2-5.8
		c5.9,4.3,6.6,10.6,2.4,16.2c-2.1,2.9-4.2,4.3-7.2,4.8L390.3,235.9z"/>
	<path d="M416.9,194.4l-6.8,12.6l-1.1-0.6l2.2-4L382,186.7l-2.2,4l-1.1-0.6l6.8-12.6l1.1,0.6l-2.2,4l29.2,15.7l2.2-4L416.9,194.4z"
		/>
	<path d="M424.9,176.3l-1.2-0.4l1.5-4.2L394,160.6l-1.2,3.4c-1.7,4.8,1.7,6.5,6.3,9.3l-0.5,1.3l-9.5-4l9.2-25.8l9.8,3.1l-0.5,1.3
		c-5-1.2-9.3-0.8-11.2,4.4l-0.8,2.2l31.2,11.1l1.5-4.2l1.2,0.4L424.9,176.3z"/>
	<path d="M404.6,113.6l-0.8,5.2l-1.2-0.2l1.6-10.9l1.2,0.2l-0.6,4.2l16.4,11.7l15.2,2.2l0.7-4.7l1.2,0.2l-2.1,14.5l-1.2-0.2l0.7-4.6
		l-15.2-2.2l-19.2,7.6l-0.6,3.9l-1.2-0.2l2.1-14.3l1.2,0.2l-0.7,4.6l17.1-6.6L404.6,113.6z"/>
</g>
</svg>
